<svg xmlns="http://www.w3.org/2000/svg" viewBox="0 0 733.06 971.97"><defs><style>.cls-1{fill:#ff007e;}.cls-2{fill:#121417;}.cls-3{fill:#fff;}.cls-4{fill:#1d1d1b;}</style></defs><g id="Layer_2" data-name="Layer 2"><g id="Layer_1-2" data-name="Layer 1"><path class="cls-1" d="M733.06,297.08c-13.49,14.93-71.63,75.7-88.84,41.2C615.71,281.15,703,21.52,710.72,0,700.18,19,395.24,290.62,338.56,287.42c-45-2.55,4.38-92,4.38-92s-237.18,211-298.07,311c-88,144.59-42.72,332.72,101.86,420.69S480.5,969.64,568.47,825.05C611.85,753.76,702.32,438.74,733.06,297.08Z"/><path class="cls-2" d="M562.2,617.09c26.71,141.28-66,277.6-207.17,304.48S77.85,855.7,51.15,714.43s66-277.6,207.16-304.48S535.49,475.81,562.2,617.09"/><path class="cls-3" d="M294.23,599.91a67,67,0,1,0,78.23,53.32,67.1,67.1,0,0,0-78.23-53.32"/><path class="cls-4" d="M323.84,662.49a17.47,17.47,0,1,1-20.41-13.92,17.51,17.51,0,0,1,20.41,13.92"/></g></g></svg>