<svg xmlns="http://www.w3.org/2000/svg" viewBox="0 0 2207.38 971.97"><defs><style>.cls-1{fill:#ff007e;}.cls-2{fill:#121417;}.cls-3{fill:#fff;}.cls-4{fill:#1d1d1b;}</style></defs><g id="Layer_2" data-name="Layer 2"><g id="Layer_1-2" data-name="Layer 1"><path class="cls-1" d="M1834.46,297.08c-13.5,14.93-71.63,75.7-88.85,41.2C1717.1,281.15,1804.44,21.52,1812.12,0,1801.58,19,1496.64,290.62,1440,287.42c-45-2.55,4.39-92,4.39-92s-237.19,211-298.07,311c-88,144.59-42.73,332.72,101.86,420.69s333.77,42.48,421.74-102.11C1713.24,753.76,1803.72,438.74,1834.46,297.08Z"/><path class="cls-2" d="M1663.6,617.09c26.71,141.28-66,277.6-207.17,304.48s-277.18-65.87-303.89-207.14,66-277.6,207.17-304.48,277.18,65.86,303.89,207.14"/><path class="cls-3" d="M1395.62,599.91a67,67,0,1,0,78.23,53.32,67.1,67.1,0,0,0-78.23-53.32"/><path class="cls-4" d="M1425.24,662.49a17.48,17.48,0,1,1-20.42-13.92,17.52,17.52,0,0,1,20.42,13.92"/><path class="cls-3" d="M1115,911.26H912.2q-9.57-18.16-19.77-38.58t-19.77-42.41q-9.57-22-17.86-45.59a454.37,454.37,0,0,1-14-48.47H829.61v175H584.74V772.88l40.81-8v-197l-40.81-8V421.51H862.46q55.15,0,95.33,5.1T1026,441.12q28,9.4,45.43,22.95t27.11,30.61A111.43,111.43,0,0,1,1111.64,532a263,263,0,0,1,3.35,42.88,185.3,185.3,0,0,1-4.31,41.61,98.44,98.44,0,0,1-15.14,34.28q-10.85,15.63-29.66,28.54t-47.82,24.39q6,12.75,18.17,29.81t26.15,34.76q14,17.68,28.21,34.43t24.4,28.54ZM829.61,642.15a324.08,324.08,0,0,0,33.64-1.59q15.15-1.59,25.83-7.34a38.71,38.71,0,0,0,16.42-16.9q5.75-11.15,5.74-30,0-18.48-5.74-29.49a41,41,0,0,0-16.42-17.06q-10.68-6.06-25.83-8a269,269,0,0,0-33.64-1.91Z"/><path class="cls-3" d="M113.44,243.32v40.22h-13.2A44.42,44.42,0,0,0,97.18,280a24.67,24.67,0,0,0-3.85-3.26,20.26,20.26,0,0,0-4.64-2.36,15.93,15.93,0,0,0-5.42-.9v54.44l10.06,2V364H22.94v-34.1l10.05-2V273.49a16,16,0,0,0-5.42.9,20.19,20.19,0,0,0-4.63,2.36A23.79,23.79,0,0,0,19.09,280,44.42,44.42,0,0,0,16,283.54H2.83V243.32Z"/><path class="cls-3" d="M124.28,243.32h70.39v34.25l-10.06,2v14.85h40.23V279.53l-10.06-2V243.32h70.39v34.25l-10.06,2v48.4l10.06,2V364H214.78v-34.1l10.06-2V312.14H184.61v15.79l10.06,2V364H124.28v-34.1l10.06-2v-48.4l-10.06-2Z"/><path class="cls-3" d="M361.53,333.82a53.7,53.7,0,0,0,10.06-.9,60.44,60.44,0,0,0,8.68-2.32,46.75,46.75,0,0,0,7.18-3.22,52.61,52.61,0,0,0,5.66-3.62h13.12V364h-105v-34.1l10.05-2v-48.4l-10.05-2V243.32h105v40.22H393.58a66.13,66.13,0,0,0-5.81-3.53,51.07,51.07,0,0,0-7.35-3.26,57.57,57.57,0,0,0-8.76-2.36,54,54,0,0,0-10.13-.9v21.44l23.57-5.1v27.81l-23.57-5.11Z"/><path class="cls-3" d="M1676.81,421.51h277.72q54.21,0,94.06,4.94t67.92,14.19q28,9.25,45.75,22.64t27.74,30a107.07,107.07,0,0,1,13.71,36.35,231.06,231.06,0,0,1,3.67,42.08,205.2,205.2,0,0,1-4.3,43.05,102.34,102.34,0,0,1-15.79,36.83q-11.48,16.74-31.72,30.13t-52,22.48q-31.73,9.09-76.52,14t-105.38,4.94v41.77l40.81,8V911.26H1676.81V772.88l40.81-8v-197l-40.81-8Zm244.88,214a269,269,0,0,0,33.64-1.92q15.14-1.9,25.83-8.13a41.07,41.07,0,0,0,16.42-18q5.73-11.8,5.74-31.89,0-19.44-5.74-31.09a40.32,40.32,0,0,0-16.42-17.69q-10.7-6.06-25.83-8a269,269,0,0,0-33.64-1.92Z"/><path class="cls-3" d="M371.46,421.51q46.23,9.89,83.22,28.53t63,47.67q26,29,39.85,69.35t13.87,93.58q0,70.49-23.59,118.46t-66.48,77.32q-42.9,29.34-103.15,42.09T244.88,911.26H0V772.88l40.81-8V556.06L0,548.09V421.51Zm-95.33,343.4q34.11,0,52.61-7.49t26.94-21.21q8.44-13.69,9.88-32.84T367,660.64q0-23.58-1.44-42.88t-9.88-33q-8.46-13.71-26.94-21.2t-52.61-7.5H244.88V764.91Z"/></g></g></svg>